<?xml version="1.0" encoding="us-ascii" standalone="no"?><svg xmlns="http://www.w3.org/2000/svg" xmlns:xlink="http://www.w3.org/1999/xlink" contentStyleType="text/css" height="583px" preserveAspectRatio="none" style="width:523px;height:583px;background:#FFFFFF;" version="1.1" viewBox="0 0 523 583" width="523px" zoomAndPan="magnify"><defs/><g><rect fill="#FFFFFF" height="402.5938" style="stroke:#181818;stroke-width:1.0;" width="10" x="17" y="91.2969"/><line style="stroke:#181818;stroke-width:0.5;stroke-dasharray:5.0,5.0;" x1="22" x2="22" y1="81.2969" y2="502.8906"/><line style="stroke:#181818;stroke-width:0.5;stroke-dasharray:5.0,5.0;" x1="116" x2="116" y1="81.2969" y2="502.8906"/><line style="stroke:#181818;stroke-width:0.5;stroke-dasharray:5.0,5.0;" x1="188.5" x2="188.5" y1="81.2969" y2="502.8906"/><line style="stroke:#181818;stroke-width:0.5;stroke-dasharray:5.0,5.0;" x1="297" x2="297" y1="81.2969" y2="502.8906"/><line style="stroke:#181818;stroke-width:0.5;stroke-dasharray:5.0,5.0;" x1="490.5" x2="490.5" y1="81.2969" y2="502.8906"/><text fill="#000000" font-family="sans-serif" font-size="14" lengthAdjust="spacing" textLength="28" x="5" y="77.9951">&#29992;&#25143;</text><ellipse cx="22" cy="13.5" fill="#E2E2F0" rx="8" ry="8" style="stroke:#181818;stroke-width:0.5;"/><path d="M22,21.5 L22,48.5 M9,29.5 L35,29.5 M22,48.5 L9,63.5 M22,48.5 L35,63.5 " fill="none" style="stroke:#181818;stroke-width:0.5;"/><text fill="#000000" font-family="sans-serif" font-size="14" lengthAdjust="spacing" textLength="28" x="5" y="514.8857">&#29992;&#25143;</text><ellipse cx="22" cy="526.6875" fill="#E2E2F0" rx="8" ry="8" style="stroke:#181818;stroke-width:0.5;"/><path d="M22,534.6875 L22,561.6875 M9,542.6875 L35,542.6875 M22,561.6875 L9,576.6875 M22,561.6875 L35,576.6875 " fill="none" style="stroke:#181818;stroke-width:0.5;"/><rect fill="#E2E2F0" height="30.2969" rx="2.5" ry="2.5" style="stroke:#181818;stroke-width:0.5;" width="56" x="88" y="50"/><text fill="#000000" font-family="sans-serif" font-size="14" lengthAdjust="spacing" textLength="42" x="95" y="69.9951">&#27983;&#35272;&#22120;</text><rect fill="#E2E2F0" height="30.2969" rx="2.5" ry="2.5" style="stroke:#181818;stroke-width:0.5;" width="56" x="88" y="501.8906"/><text fill="#000000" font-family="sans-serif" font-size="14" lengthAdjust="spacing" textLength="42" x="95" y="521.8857">&#27983;&#35272;&#22120;</text><rect fill="#E2E2F0" height="30.2969" rx="2.5" ry="2.5" style="stroke:#181818;stroke-width:0.5;" width="69" x="154.5" y="50"/><text fill="#000000" font-family="sans-serif" font-size="14" lengthAdjust="spacing" textLength="55" x="161.5" y="69.9951">&#26381;&#21153;&#22120; A</text><rect fill="#E2E2F0" height="30.2969" rx="2.5" ry="2.5" style="stroke:#181818;stroke-width:0.5;" width="69" x="154.5" y="501.8906"/><text fill="#000000" font-family="sans-serif" font-size="14" lengthAdjust="spacing" textLength="55" x="161.5" y="521.8857">&#26381;&#21153;&#22120; A</text><rect fill="#E2E2F0" height="30.2969" rx="2.5" ry="2.5" style="stroke:#181818;stroke-width:0.5;" width="70" x="262" y="50"/><text fill="#000000" font-family="sans-serif" font-size="14" lengthAdjust="spacing" textLength="56" x="269" y="69.9951">&#26381;&#21153;&#22120; B</text><rect fill="#E2E2F0" height="30.2969" rx="2.5" ry="2.5" style="stroke:#181818;stroke-width:0.5;" width="70" x="262" y="501.8906"/><text fill="#000000" font-family="sans-serif" font-size="14" lengthAdjust="spacing" textLength="56" x="269" y="521.8857">&#26381;&#21153;&#22120; B</text><rect fill="#FFA500" height="30.2969" rx="2.5" ry="2.5" style="stroke:#181818;stroke-width:0.5;" width="53" x="464.5" y="50"/><text fill="#000000" font-family="sans-serif" font-size="14" lengthAdjust="spacing" textLength="39" x="471.5" y="69.9951">Redis</text><rect fill="#FFA500" height="30.2969" rx="2.5" ry="2.5" style="stroke:#181818;stroke-width:0.5;" width="53" x="464.5" y="501.8906"/><text fill="#000000" font-family="sans-serif" font-size="14" lengthAdjust="spacing" textLength="39" x="471.5" y="521.8857">Redis</text><rect fill="#FFFFFF" height="402.5938" style="stroke:#181818;stroke-width:1.0;" width="10" x="17" y="91.2969"/><polygon fill="#181818" points="104,108.4297,114,112.4297,104,116.4297,108,112.4297" style="stroke:#181818;stroke-width:1.0;"/><line style="stroke:#181818;stroke-width:1.0;" x1="27" x2="110" y1="112.4297" y2="112.4297"/><text fill="#000000" font-family="sans-serif" font-size="13" font-weight="bold" lengthAdjust="spacing" textLength="9" x="34" y="107.3638">1</text><text fill="#000000" font-family="sans-serif" font-size="13" lengthAdjust="spacing" textLength="26" x="47" y="107.3638">&#30331;&#24405;</text><polygon fill="#181818" points="177,137.5625,187,141.5625,177,145.5625,181,141.5625" style="stroke:#181818;stroke-width:1.0;"/><line style="stroke:#181818;stroke-width:1.0;" x1="116" x2="183" y1="141.5625" y2="141.5625"/><text fill="#000000" font-family="sans-serif" font-size="13" font-weight="bold" lengthAdjust="spacing" textLength="9" x="123" y="136.4966">2</text><text fill="#000000" font-family="sans-serif" font-size="13" lengthAdjust="spacing" textLength="26" x="136" y="136.4966">&#30331;&#24405;</text><line style="stroke:#181818;stroke-width:1.0;" x1="189" x2="231" y1="170.6953" y2="170.6953"/><line style="stroke:#181818;stroke-width:1.0;" x1="231" x2="231" y1="170.6953" y2="183.6953"/><line style="stroke:#181818;stroke-width:1.0;" x1="190" x2="231" y1="183.6953" y2="183.6953"/><polygon fill="#181818" points="200,179.6953,190,183.6953,200,187.6953,196,183.6953" style="stroke:#181818;stroke-width:1.0;"/><text fill="#000000" font-family="sans-serif" font-size="13" font-weight="bold" lengthAdjust="spacing" textLength="9" x="196" y="165.6294">3</text><text fill="#000000" font-family="sans-serif" font-size="13" lengthAdjust="spacing" textLength="78" x="209" y="165.6294">&#29992;&#25143;&#30331;&#24405;&#26657;&#39564;</text><line style="stroke:#181818;stroke-width:1.0;" x1="189" x2="231" y1="212.8281" y2="212.8281"/><line style="stroke:#181818;stroke-width:1.0;" x1="231" x2="231" y1="212.8281" y2="225.8281"/><line style="stroke:#181818;stroke-width:1.0;" x1="190" x2="231" y1="225.8281" y2="225.8281"/><polygon fill="#181818" points="200,221.8281,190,225.8281,200,229.8281,196,225.8281" style="stroke:#181818;stroke-width:1.0;"/><text fill="#000000" font-family="sans-serif" font-size="13" font-weight="bold" lengthAdjust="spacing" textLength="9" x="196" y="207.7622">4</text><text fill="#000000" font-family="sans-serif" font-size="13" lengthAdjust="spacing" textLength="66" x="209" y="207.7622">&#29983;&#25104; token</text><polygon fill="#181818" points="479,250.9609,489,254.9609,479,258.9609,483,254.9609" style="stroke:#181818;stroke-width:1.0;"/><line style="stroke:#181818;stroke-width:1.0;" x1="189" x2="485" y1="254.9609" y2="254.9609"/><text fill="#000000" font-family="sans-serif" font-size="13" font-weight="bold" lengthAdjust="spacing" textLength="9" x="196" y="249.895">5</text><text fill="#000000" font-family="sans-serif" font-size="13" lengthAdjust="spacing" textLength="80" x="209" y="249.895">&#20445;&#23384; Session</text><polygon fill="#181818" points="127,280.0938,117,284.0938,127,288.0938,123,284.0938" style="stroke:#181818;stroke-width:1.0;"/><line style="stroke:#181818;stroke-width:1.0;stroke-dasharray:2.0,2.0;" x1="121" x2="188" y1="284.0938" y2="284.0938"/><text fill="#000000" font-family="sans-serif" font-size="13" font-weight="bold" lengthAdjust="spacing" textLength="9" x="133" y="279.0278">6</text><text fill="#000000" font-family="sans-serif" font-size="13" lengthAdjust="spacing" textLength="36" x="146" y="279.0278">token</text><polygon fill="#181818" points="104,309.2266,114,313.2266,104,317.2266,108,313.2266" style="stroke:#181818;stroke-width:1.0;"/><line style="stroke:#181818;stroke-width:1.0;" x1="27" x2="110" y1="313.2266" y2="313.2266"/><text fill="#000000" font-family="sans-serif" font-size="13" font-weight="bold" lengthAdjust="spacing" textLength="9" x="34" y="308.1606">7</text><text fill="#000000" font-family="sans-serif" font-size="13" lengthAdjust="spacing" textLength="52" x="47" y="308.1606">&#35775;&#38382;&#39029;&#38754;</text><polygon fill="#181818" points="285,338.3594,295,342.3594,285,346.3594,289,342.3594" style="stroke:#181818;stroke-width:1.0;"/><line style="stroke:#181818;stroke-width:1.0;" x1="116" x2="291" y1="342.3594" y2="342.3594"/><text fill="#000000" font-family="sans-serif" font-size="13" font-weight="bold" lengthAdjust="spacing" textLength="9" x="123" y="337.2935">8</text><text fill="#000000" font-family="sans-serif" font-size="13" lengthAdjust="spacing" textLength="144" x="136" y="337.2935">&#35775;&#38382;&#39029;&#38754;&#65288;&#25658;&#24102; token&#65289;</text><polygon fill="#181818" points="479,367.4922,489,371.4922,479,375.4922,483,371.4922" style="stroke:#181818;stroke-width:1.0;"/><line style="stroke:#181818;stroke-width:1.0;" x1="297" x2="485" y1="371.4922" y2="371.4922"/><text fill="#000000" font-family="sans-serif" font-size="13" font-weight="bold" lengthAdjust="spacing" textLength="9" x="304" y="366.4263">9</text><text fill="#000000" font-family="sans-serif" font-size="13" lengthAdjust="spacing" textLength="80" x="317" y="366.4263">&#26597;&#35810; Session</text><line style="stroke:#181818;stroke-width:1.0;" x1="297" x2="339" y1="400.625" y2="400.625"/><line style="stroke:#181818;stroke-width:1.0;" x1="339" x2="339" y1="400.625" y2="413.625"/><line style="stroke:#181818;stroke-width:1.0;" x1="298" x2="339" y1="413.625" y2="413.625"/><polygon fill="#181818" points="308,409.625,298,413.625,308,417.625,304,413.625" style="stroke:#181818;stroke-width:1.0;"/><text fill="#000000" font-family="sans-serif" font-size="13" font-weight="bold" lengthAdjust="spacing" textLength="18" x="304" y="395.5591">10</text><text fill="#000000" font-family="sans-serif" font-size="13" lengthAdjust="spacing" textLength="158" x="326" y="395.5591">&#33719;&#21462;&#21040; Session&#65292;&#37492;&#26435;&#36890;&#36807;</text><line style="stroke:#181818;stroke-width:1.0;" x1="297" x2="339" y1="442.7578" y2="442.7578"/><line style="stroke:#181818;stroke-width:1.0;" x1="339" x2="339" y1="442.7578" y2="455.7578"/><line style="stroke:#181818;stroke-width:1.0;" x1="298" x2="339" y1="455.7578" y2="455.7578"/><polygon fill="#181818" points="308,451.7578,298,455.7578,308,459.7578,304,455.7578" style="stroke:#181818;stroke-width:1.0;"/><text fill="#000000" font-family="sans-serif" font-size="13" font-weight="bold" lengthAdjust="spacing" textLength="18" x="304" y="437.6919">11</text><text fill="#000000" font-family="sans-serif" font-size="13" lengthAdjust="spacing" textLength="78" x="326" y="437.6919">&#19994;&#21153;&#36923;&#36753;&#22788;&#29702;</text><polygon fill="#181818" points="127,480.8906,117,484.8906,127,488.8906,123,484.8906" style="stroke:#181818;stroke-width:1.0;"/><line style="stroke:#181818;stroke-width:1.0;stroke-dasharray:2.0,2.0;" x1="121" x2="296" y1="484.8906" y2="484.8906"/><text fill="#000000" font-family="sans-serif" font-size="13" font-weight="bold" lengthAdjust="spacing" textLength="18" x="133" y="479.8247">12</text><text fill="#000000" font-family="sans-serif" font-size="13" lengthAdjust="spacing" textLength="52" x="155" y="479.8247">&#22788;&#29702;&#32467;&#26524;</text></g></svg>