<?xml version="1.0" encoding="UTF-8" standalone="no"?><svg xmlns="http://www.w3.org/2000/svg" xmlns:xlink="http://www.w3.org/1999/xlink" contentStyleType="text/css" height="662px" preserveAspectRatio="none" style="width:281px;height:662px;background:#FFFFFF;" version="1.1" viewBox="0 0 281 662" width="281px" zoomAndPan="magnify"><defs/><g><ellipse cx="188" cy="16" fill="#222222" rx="10" ry="10" style="stroke:none;stroke-width:1.0;"/><g id="已下单"><rect fill="#F1F1F1" height="50" rx="12.5" ry="12.5" style="stroke:#181818;stroke-width:0.5;" width="62" x="157" y="86"/><line style="stroke:#181818;stroke-width:0.5;" x1="157" x2="219" y1="112.2969" y2="112.2969"/><text fill="#000000" font-family="sans-serif" font-size="14" lengthAdjust="spacing" textLength="42" x="167" y="103.9951">已下单</text></g><g id="已支付"><rect fill="#F1F1F1" height="50" rx="12.5" ry="12.5" style="stroke:#181818;stroke-width:0.5;" width="62" x="111" y="196"/><line style="stroke:#181818;stroke-width:0.5;" x1="111" x2="173" y1="222.2969" y2="222.2969"/><text fill="#000000" font-family="sans-serif" font-size="14" lengthAdjust="spacing" textLength="42" x="121" y="213.9951">已支付</text></g><g id="已取消"><rect fill="#F1F1F1" height="50" rx="12.5" ry="12.5" style="stroke:#181818;stroke-width:0.5;" width="62" x="212" y="306"/><line style="stroke:#181818;stroke-width:0.5;" x1="212" x2="274" y1="332.2969" y2="332.2969"/><text fill="#000000" font-family="sans-serif" font-size="14" lengthAdjust="spacing" textLength="42" x="222" y="323.9951">已取消</text></g><g id="已发货"><rect fill="#F1F1F1" height="50" rx="12.5" ry="12.5" style="stroke:#181818;stroke-width:0.5;" width="62" x="111" y="306"/><line style="stroke:#181818;stroke-width:0.5;" x1="111" x2="173" y1="332.2969" y2="332.2969"/><text fill="#000000" font-family="sans-serif" font-size="14" lengthAdjust="spacing" textLength="42" x="121" y="323.9951">已发货</text></g><g id="已退款"><rect fill="#F1F1F1" height="50" rx="12.5" ry="12.5" style="stroke:#181818;stroke-width:0.5;" width="62" x="7" y="416"/><line style="stroke:#181818;stroke-width:0.5;" x1="7" x2="69" y1="442.2969" y2="442.2969"/><text fill="#000000" font-family="sans-serif" font-size="14" lengthAdjust="spacing" textLength="42" x="17" y="433.9951">已退款</text></g><g id="已确认收货"><rect fill="#F1F1F1" height="50" rx="12.5" ry="12.5" style="stroke:#181818;stroke-width:0.5;" width="90" x="104" y="416"/><line style="stroke:#181818;stroke-width:0.5;" x1="104" x2="194" y1="442.2969" y2="442.2969"/><text fill="#000000" font-family="sans-serif" font-size="14" lengthAdjust="spacing" textLength="70" x="114" y="433.9951">已确认收货</text></g><g id="已完成"><rect fill="#F1F1F1" height="50" rx="12.5" ry="12.5" style="stroke:#181818;stroke-width:0.5;" width="62" x="118" y="526"/><line style="stroke:#181818;stroke-width:0.5;" x1="118" x2="180" y1="552.2969" y2="552.2969"/><text fill="#000000" font-family="sans-serif" font-size="14" lengthAdjust="spacing" textLength="42" x="128" y="543.9951">已完成</text></g><ellipse cx="198" cy="646" fill="none" rx="10" ry="10" style="stroke:#222222;stroke-width:1.0;"/><ellipse cx="198.5" cy="646.5" fill="#222222" rx="6" ry="6" style="stroke:none;stroke-width:1.0;"/><g id="link_*start_已下单"><path d="M188,26.257 C188,38.856 188,61.981 188,80.743 " fill="none" id="*start-to-已下单" style="stroke:#181818;stroke-width:1.0;"/><polygon fill="#181818" points="188,85.907,192,76.907,188,80.907,184,76.907,188,85.907" style="stroke:#181818;stroke-width:1.0;"/></g><g id="link_已下单_已支付"><path d="M177.677,136.237 C170.752,152.495 161.598,173.988 154.296,191.132 " fill="none" id="已下单-to-已支付" style="stroke:#181818;stroke-width:1.0;"/><polygon fill="#181818" points="152.289,195.844,159.495,189.1303,154.2477,191.2436,152.1344,185.9964,152.289,195.844" style="stroke:#181818;stroke-width:1.0;"/></g><g id="link_已下单_已取消"><path d="M194.096,136.163 C204.276,176.512 224.696,257.451 235.653,300.879 " fill="none" id="已下单-to-已取消" style="stroke:#181818;stroke-width:1.0;"/><polygon fill="#181818" points="236.877,305.729,238.5539,296.0239,235.6539,300.8809,230.7969,297.9809,236.877,305.729" style="stroke:#181818;stroke-width:1.0;"/></g><g id="link_已支付_已发货"><path d="M142,246.237 C142,262.357 142,283.621 142,300.691 " fill="none" id="已支付-to-已发货" style="stroke:#181818;stroke-width:1.0;"/><polygon fill="#181818" points="142,305.844,146,296.844,142,300.844,138,296.844,142,305.844" style="stroke:#181818;stroke-width:1.0;"/></g><g id="link_已支付_已退款"><path d="M127.116,246.195 C117.196,262.75 104.1641,285.355 94,306 C76.5958,341.35 59.5723,383.476 48.9502,410.932 " fill="none" id="已支付-to-已退款" style="stroke:#181818;stroke-width:1.0;"/><polygon fill="#181818" points="47.0426,415.883,54.0102,408.9222,48.8398,411.2172,46.5449,406.0467,47.0426,415.883" style="stroke:#181818;stroke-width:1.0;"/></g><g id="link_已发货_已退款"><path d="M118.66,356.237 C102.7367,372.773 81.5986,394.725 64.9563,412.007 " fill="none" id="已发货-to-已退款" style="stroke:#181818;stroke-width:1.0;"/><polygon fill="#181818" points="61.2617,415.844,70.386,412.1362,64.7301,412.2426,64.6237,406.5867,61.2617,415.844" style="stroke:#181818;stroke-width:1.0;"/></g><g id="link_已发货_已确认收货"><path d="M143.571,356.237 C144.616,372.357 145.994,393.621 147.1,410.691 " fill="none" id="已发货-to-已确认收货" style="stroke:#181818;stroke-width:1.0;"/><polygon fill="#181818" points="147.434,415.844,150.8446,406.6045,147.1112,410.8544,142.8613,407.121,147.434,415.844" style="stroke:#181818;stroke-width:1.0;"/></g><g id="link_已确认收货_已完成"><path d="M149,466.237 C149,482.357 149,503.621 149,520.691 " fill="none" id="已确认收货-to-已完成" style="stroke:#181818;stroke-width:1.0;"/><polygon fill="#181818" points="149,525.844,153,516.844,149,520.844,145,516.844,149,525.844" style="stroke:#181818;stroke-width:1.0;"/></g><g id="link_已退款_已完成"><path d="M62.9106,466.237 C79.906,482.773 102.4669,504.725 120.229,522.007 " fill="none" id="已退款-to-已完成" style="stroke:#181818;stroke-width:1.0;"/><polygon fill="#181818" points="124.173,525.844,120.5115,516.7011,120.5892,522.3574,114.9329,522.4351,124.173,525.844" style="stroke:#181818;stroke-width:1.0;"/></g><g id="link_已完成_*end"><path d="M161.874,576.4347 C171.351,594.4213 183.849,618.142 191.386,632.4464 " fill="none" id="已完成-to-*end" style="stroke:#181818;stroke-width:1.0;"/><polygon fill="#181818" points="193.74,636.9146,193.0829,627.0877,191.409,632.4912,186.0055,630.8173,193.74,636.9146" style="stroke:#181818;stroke-width:1.0;"/></g><g id="link_已取消_*end"><path d="M239.544,356.041 C230.646,417.93 207.153,581.3356 200.058,630.6859 " fill="none" id="已取消-to-*end" style="stroke:#181818;stroke-width:1.0;"/><polygon fill="#181818" points="199.312,635.8711,204.5525,627.5322,200.0238,630.922,196.634,626.3933,199.312,635.8711" style="stroke:#181818;stroke-width:1.0;"/></g></g></svg>