<?xml version="1.0" encoding="us-ascii" standalone="no"?><svg xmlns="http://www.w3.org/2000/svg" xmlns:xlink="http://www.w3.org/1999/xlink" contentStyleType="text/css" height="334px" preserveAspectRatio="none" style="width:383px;height:334px;background:#FFFFFF;" version="1.1" viewBox="0 0 383 334" width="383px" zoomAndPan="magnify"><defs/><g><line style="stroke:#181818;stroke-width:0.5;stroke-dasharray:5.0,5.0;" x1="40" x2="40" y1="36.2969" y2="299.2266"/><line style="stroke:#181818;stroke-width:0.5;stroke-dasharray:5.0,5.0;" x1="243" x2="243" y1="36.2969" y2="299.2266"/><line style="stroke:#181818;stroke-width:0.5;stroke-dasharray:5.0,5.0;" x1="304" x2="304" y1="36.2969" y2="299.2266"/><rect fill="#E2E2F0" height="30.2969" rx="2.5" ry="2.5" style="stroke:#181818;stroke-width:0.5;" width="70" x="5" y="5"/><text fill="#000000" font-family="sans-serif" font-size="14" lengthAdjust="spacing" textLength="56" x="12" y="24.9951">&#39118;&#25511;&#20915;&#31574;</text><rect fill="#E2E2F0" height="30.2969" rx="2.5" ry="2.5" style="stroke:#181818;stroke-width:0.5;" width="70" x="5" y="298.2266"/><text fill="#000000" font-family="sans-serif" font-size="14" lengthAdjust="spacing" textLength="56" x="12" y="318.2217">&#39118;&#25511;&#20915;&#31574;</text><rect fill="#E2E2F0" height="30.2969" rx="2.5" ry="2.5" style="stroke:#181818;stroke-width:0.5;" width="68" x="209" y="5"/><text fill="#000000" font-family="sans-serif" font-size="14" lengthAdjust="spacing" textLength="54" x="216" y="24.9951">caffeine</text><rect fill="#E2E2F0" height="30.2969" rx="2.5" ry="2.5" style="stroke:#181818;stroke-width:0.5;" width="68" x="209" y="298.2266"/><text fill="#000000" font-family="sans-serif" font-size="14" lengthAdjust="spacing" textLength="54" x="216" y="318.2217">caffeine</text><rect fill="#E2E2F0" height="30.2969" rx="2.5" ry="2.5" style="stroke:#181818;stroke-width:0.5;" width="35" x="287" y="5"/><text fill="#000000" font-family="sans-serif" font-size="14" lengthAdjust="spacing" textLength="21" x="294" y="24.9951">tair</text><rect fill="#E2E2F0" height="30.2969" rx="2.5" ry="2.5" style="stroke:#181818;stroke-width:0.5;" width="35" x="287" y="298.2266"/><text fill="#000000" font-family="sans-serif" font-size="14" lengthAdjust="spacing" textLength="21" x="294" y="318.2217">tair</text><polygon fill="#181818" points="231,63.4297,241,67.4297,231,71.4297,235,67.4297" style="stroke:#181818;stroke-width:1.0;"/><line style="stroke:#181818;stroke-width:1.0;" x1="40" x2="237" y1="67.4297" y2="67.4297"/><text fill="#000000" font-family="sans-serif" font-size="13" font-weight="bold" lengthAdjust="spacing" textLength="9" x="47" y="62.3638">1</text><text fill="#000000" font-family="sans-serif" font-size="13" lengthAdjust="spacing" textLength="52" x="60" y="62.3638">&#26597;&#35810;&#25968;&#25454;</text><line style="stroke:#181818;stroke-width:1.0;" x1="40" x2="82" y1="96.5625" y2="96.5625"/><line style="stroke:#181818;stroke-width:1.0;" x1="82" x2="82" y1="96.5625" y2="109.5625"/><line style="stroke:#181818;stroke-width:1.0;" x1="41" x2="82" y1="109.5625" y2="109.5625"/><polygon fill="#181818" points="51,105.5625,41,109.5625,51,113.5625,47,109.5625" style="stroke:#181818;stroke-width:1.0;"/><text fill="#000000" font-family="sans-serif" font-size="13" font-weight="bold" lengthAdjust="spacing" textLength="9" x="47" y="91.4966">2</text><text fill="#000000" font-family="sans-serif" font-size="13" lengthAdjust="spacing" textLength="176" x="60" y="91.4966">&#31579;&#36873;&#20986;caffeine&#20013;&#26410;&#26597;&#21040;&#30340;key</text><polygon fill="#181818" points="292.5,134.6953,302.5,138.6953,292.5,142.6953,296.5,138.6953" style="stroke:#181818;stroke-width:1.0;"/><line style="stroke:#181818;stroke-width:1.0;" x1="40" x2="298.5" y1="138.6953" y2="138.6953"/><text fill="#000000" font-family="sans-serif" font-size="13" font-weight="bold" lengthAdjust="spacing" textLength="9" x="47" y="133.6294">3</text><text fill="#000000" font-family="sans-serif" font-size="13" lengthAdjust="spacing" textLength="52" x="60" y="133.6294">&#26597;&#35810;&#25968;&#25454;</text><line style="stroke:#181818;stroke-width:1.0;" x1="304.5" x2="346.5" y1="167.8281" y2="167.8281"/><line style="stroke:#181818;stroke-width:1.0;" x1="346.5" x2="346.5" y1="167.8281" y2="180.8281"/><line style="stroke:#181818;stroke-width:1.0;" x1="305.5" x2="346.5" y1="180.8281" y2="180.8281"/><polygon fill="#181818" points="315.5,176.8281,305.5,180.8281,315.5,184.8281,311.5,180.8281" style="stroke:#181818;stroke-width:1.0;"/><text fill="#000000" font-family="sans-serif" font-size="13" font-weight="bold" lengthAdjust="spacing" textLength="9" x="311.5" y="162.7622">4</text><text fill="#000000" font-family="sans-serif" font-size="13" lengthAdjust="spacing" textLength="52" x="324.5" y="162.7622">&#28909;&#28857;&#26816;&#27979;</text><polygon fill="#181818" points="51,205.9609,41,209.9609,51,213.9609,47,209.9609" style="stroke:#181818;stroke-width:1.0;"/><line style="stroke:#181818;stroke-width:1.0;stroke-dasharray:2.0,2.0;" x1="45" x2="303.5" y1="209.9609" y2="209.9609"/><text fill="#000000" font-family="sans-serif" font-size="13" font-weight="bold" lengthAdjust="spacing" textLength="9" x="57" y="204.895">5</text><text fill="#000000" font-family="sans-serif" font-size="13" lengthAdjust="spacing" textLength="52" x="70" y="204.895">&#25968;&#25454;&#32467;&#26524;</text><polygon fill="#181818" points="231,235.0938,241,239.0938,231,243.0938,235,239.0938" style="stroke:#181818;stroke-width:1.0;"/><line style="stroke:#181818;stroke-width:1.0;" x1="40" x2="237" y1="239.0938" y2="239.0938"/><text fill="#000000" font-family="sans-serif" font-size="13" font-weight="bold" lengthAdjust="spacing" textLength="9" x="47" y="234.0278">6</text><text fill="#000000" font-family="sans-serif" font-size="13" lengthAdjust="spacing" textLength="52" x="60" y="234.0278">&#20445;&#23384;&#25968;&#25454;</text><line style="stroke:#181818;stroke-width:1.0;" x1="40" x2="82" y1="268.2266" y2="268.2266"/><line style="stroke:#181818;stroke-width:1.0;" x1="82" x2="82" y1="268.2266" y2="281.2266"/><line style="stroke:#181818;stroke-width:1.0;" x1="41" x2="82" y1="281.2266" y2="281.2266"/><polygon fill="#181818" points="51,277.2266,41,281.2266,51,285.2266,47,281.2266" style="stroke:#181818;stroke-width:1.0;"/><text fill="#000000" font-family="sans-serif" font-size="13" font-weight="bold" lengthAdjust="spacing" textLength="9" x="47" y="263.1606">7</text><text fill="#000000" font-family="sans-serif" font-size="13" lengthAdjust="spacing" textLength="52" x="60" y="263.1606">&#35268;&#21017;&#20915;&#31574;</text></g></svg>