<?xml version="1.0" encoding="UTF-8" standalone="no"?><svg xmlns="http://www.w3.org/2000/svg" xmlns:xlink="http://www.w3.org/1999/xlink" contentStyleType="text/css" height="332px" preserveAspectRatio="none" style="width:232px;height:332px;background:#FFFFFF;" version="1.1" viewBox="0 0 232 332" width="232px" zoomAndPan="magnify"><defs/><g><ellipse cx="38" cy="16" fill="#222222" rx="10" ry="10" style="stroke:none;stroke-width:1.0;"/><g id="已创建"><rect fill="#F1F1F1" height="50" rx="12.5" ry="12.5" style="stroke:#181818;stroke-width:0.5;" width="62" x="7" y="86"/><line style="stroke:#181818;stroke-width:0.5;" x1="7" x2="69" y1="112.2969" y2="112.2969"/><text fill="#000000" font-family="sans-serif" font-size="14" lengthAdjust="spacing" textLength="42" x="17" y="103.9951">已创建</text></g><g id="支付中"><rect fill="#F1F1F1" height="50" rx="12.5" ry="12.5" style="stroke:#181818;stroke-width:0.5;" width="62" x="104" y="86"/><line style="stroke:#181818;stroke-width:0.5;" x1="104" x2="166" y1="112.2969" y2="112.2969"/><text fill="#000000" font-family="sans-serif" font-size="14" lengthAdjust="spacing" textLength="42" x="114" y="103.9951">支付中</text></g><g id="支付成功"><rect fill="#F1F1F1" height="50" rx="12.5" ry="12.5" style="stroke:#181818;stroke-width:0.5;" width="76" x="149" y="196"/><line style="stroke:#181818;stroke-width:0.5;" x1="149" x2="225" y1="222.2969" y2="222.2969"/><text fill="#000000" font-family="sans-serif" font-size="14" lengthAdjust="spacing" textLength="56" x="159" y="213.9951">支付成功</text></g><g id="已取消"><rect fill="#F1F1F1" height="50" rx="12.5" ry="12.5" style="stroke:#181818;stroke-width:0.5;" width="62" x="52" y="196"/><line style="stroke:#181818;stroke-width:0.5;" x1="52" x2="114" y1="222.2969" y2="222.2969"/><text fill="#000000" font-family="sans-serif" font-size="14" lengthAdjust="spacing" textLength="42" x="62" y="213.9951">已取消</text></g><ellipse cx="135" cy="316" fill="none" rx="10" ry="10" style="stroke:#222222;stroke-width:1.0;"/><ellipse cx="135.5" cy="316.5" fill="#222222" rx="6" ry="6" style="stroke:none;stroke-width:1.0;"/><g id="link_*start_已创建"><path d="M38,26.257 C38,38.856 38,61.981 38,80.743 " fill="none" id="*start-to-已创建" style="stroke:#181818;stroke-width:1.0;"/><polygon fill="#181818" points="38,85.907,42,76.907,38,80.907,34,76.907,38,85.907" style="stroke:#181818;stroke-width:1.0;"/></g><g id="link_已创建_支付中"><path d="M69.0703,111 C78.9392,111 88.8082,111 98.6771,111 " fill="none" id="已创建-to-支付中" style="stroke:#181818;stroke-width:1.0;"/><polygon fill="#181818" points="103.8379,111,94.8379,107,98.8379,111,94.8379,115,103.8379,111" style="stroke:#181818;stroke-width:1.0;"/></g><g id="link_支付中_支付成功"><path d="M146.67,136.237 C154.498,152.495 164.846,173.988 173.1,191.132 " fill="none" id="支付中-to-支付成功" style="stroke:#181818;stroke-width:1.0;"/><polygon fill="#181818" points="175.369,195.844,175.0676,185.9998,173.1994,191.3392,167.86,189.471,175.369,195.844" style="stroke:#181818;stroke-width:1.0;"/></g><g id="link_支付中_已取消"><path d="M123.33,136.237 C115.502,152.495 105.1538,173.988 96.8996,191.132 " fill="none" id="支付中-to-已取消" style="stroke:#181818;stroke-width:1.0;"/><polygon fill="#181818" points="94.6309,195.844,102.1402,189.4714,96.8007,191.3393,94.9328,185.9998,94.6309,195.844" style="stroke:#181818;stroke-width:1.0;"/></g><g id="link_已取消_*end"><path d="M96.6624,246.4347 C106.7194,264.4213 119.983,288.142 127.981,302.4464 " fill="none" id="已取消-to-*end" style="stroke:#181818;stroke-width:1.0;"/><polygon fill="#181818" points="130.479,306.9146,129.5782,297.107,128.0389,302.5504,122.5955,301.0112,130.479,306.9146" style="stroke:#181818;stroke-width:1.0;"/></g><g id="link_支付成功_*end"><path d="M173.338,246.4347 C163.281,264.4213 150.017,288.142 142.019,302.4464 " fill="none" id="支付成功-to-*end" style="stroke:#181818;stroke-width:1.0;"/><polygon fill="#181818" points="139.521,306.9146,147.4045,301.0112,141.9611,302.5504,140.4218,297.107,139.521,306.9146" style="stroke:#181818;stroke-width:1.0;"/></g></g></svg>